<svg width="48" height="49" viewBox="0 0 48 49" fill="none" xmlns="http://www.w3.org/2000/svg">
<g filter="url(#filter0_d_2724_444)">
<rect x="4" width="40" height="40.0771" rx="8" fill="#F9AA01"/>
<path d="M35.2143 7.01355H13.7801C12.798 7.01355 12 7.82426 12 8.81948V30.2558C12 31.251 12.798 32.0617 13.7801 32.0617H35.2143C36.1964 32.0617 37 31.251 37 30.2558V8.81948C37 7.82426 36.1964 7.01355 35.2143 7.01355ZM19.5558 28.4834H15.8504V16.5296H19.5614V28.4834H19.5558ZM17.7031 14.897C16.5145 14.897 15.5547 13.9298 15.5547 12.7444C15.5547 11.5591 16.5145 10.5919 17.7031 10.5919C18.8862 10.5919 19.8516 11.5591 19.8516 12.7444C19.8516 13.9353 18.8917 14.897 17.7031 14.897ZM33.4453 28.4834H29.74V22.6687C29.74 21.2821 29.7121 19.4985 27.8147 19.4985C25.8839 19.4985 25.5882 21.0081 25.5882 22.568V28.4834H21.8828V16.5296H25.4375V18.1622H25.4877C25.9844 17.2229 27.1953 16.2333 28.9978 16.2333C32.7478 16.2333 33.4453 18.7101 33.4453 21.9306V28.4834Z" fill="#1B1426"/>
</g>
<defs>
<filter id="filter0_d_2724_444" x="0" y="0" width="48" height="48.077" filterUnits="userSpaceOnUse" color-interpolation-filters="sRGB">
<feFlood flood-opacity="0" result="BackgroundImageFix"/>
<feColorMatrix in="SourceAlpha" type="matrix" values="0 0 0 0 0 0 0 0 0 0 0 0 0 0 0 0 0 0 127 0" result="hardAlpha"/>
<feOffset dy="4"/>
<feGaussianBlur stdDeviation="2"/>
<feComposite in2="hardAlpha" operator="out"/>
<feColorMatrix type="matrix" values="0 0 0 0 0 0 0 0 0 0 0 0 0 0 0 0 0 0 0.25 0"/>
<feBlend mode="normal" in2="BackgroundImageFix" result="effect1_dropShadow_2724_444"/>
<feBlend mode="normal" in="SourceGraphic" in2="effect1_dropShadow_2724_444" result="shape"/>
</filter>
</defs>
</svg>
