<svg width="40" height="41" viewBox="0 0 40 41" fill="none" xmlns="http://www.w3.org/2000/svg">
<rect width="40" height="40.0771" rx="8" fill="#F9AA01"/>
<path d="M20.5028 13.1156C16.9557 13.1156 14.0945 15.9829 14.0945 19.5376C14.0945 23.0924 16.9557 25.9597 20.5028 25.9597C24.0499 25.9597 26.911 23.0924 26.911 19.5376C26.911 15.9829 24.0499 13.1156 20.5028 13.1156ZM20.5028 23.7128C18.2105 23.7128 16.3366 21.8404 16.3366 19.5376C16.3366 17.2349 18.205 15.3625 20.5028 15.3625C22.8006 15.3625 24.669 17.2349 24.669 19.5376C24.669 21.8404 22.795 23.7128 20.5028 23.7128ZM28.6679 12.8529C28.6679 13.6857 27.9986 14.3508 27.1732 14.3508C26.3422 14.3508 25.6785 13.6801 25.6785 12.8529C25.6785 12.0257 26.3477 11.355 27.1732 11.355C27.9986 11.355 28.6679 12.0257 28.6679 12.8529ZM32.9122 14.3732C32.8173 12.3666 32.36 10.5893 30.8932 9.12488C29.432 7.6605 27.6584 7.20219 25.6562 7.10158C23.5926 6.98421 17.4074 6.98421 15.3438 7.10158C13.3472 7.1966 11.5736 7.65491 10.1068 9.1193C8.63999 10.5837 8.18823 12.3611 8.08784 14.3676C7.97072 16.4356 7.97072 22.6341 8.08784 24.7021C8.18265 26.7086 8.63999 28.486 10.1068 29.9504C11.5736 31.4148 13.3416 31.8731 15.3438 31.9737C17.4074 32.0911 23.5926 32.0911 25.6562 31.9737C27.6584 31.8787 29.432 31.4204 30.8932 29.9504C32.3544 28.486 32.8118 26.7086 32.9122 24.7021C33.0293 22.6341 33.0293 16.4412 32.9122 14.3732ZM30.2462 26.921C29.8112 28.0165 28.969 28.8605 27.8703 29.302C26.225 29.956 22.321 29.8051 20.5028 29.8051C18.6846 29.8051 14.775 29.9504 13.1352 29.302C12.0421 28.8661 11.1999 28.0221 10.7593 26.921C10.1068 25.2722 10.2574 21.3597 10.2574 19.5376C10.2574 17.7155 10.1124 13.7975 10.7593 12.1543C11.1944 11.0588 12.0365 10.2148 13.1352 9.77324C14.7805 9.1193 18.6846 9.2702 20.5028 9.2702C22.321 9.2702 26.2306 9.12488 27.8703 9.77324C28.9635 10.2092 29.8056 11.0532 30.2462 12.1543C30.8988 13.8031 30.7482 17.7155 30.7482 19.5376C30.7482 21.3597 30.8988 25.2778 30.2462 26.921Z" fill="#1B1426"/>
</svg>
